<?xml version="1.0" standalone="no"?><!DOCTYPE svg PUBLIC "-//W3C//DTD SVG 1.1//EN" "http://www.w3.org/Graphics/SVG/1.1/DTD/svg11.dtd"><svg class="icon" width="200px" height="200.00px" viewBox="0 0 1024 1024" version="1.1" xmlns="http://www.w3.org/2000/svg"><path d="M912.8192 342.4768a432.384 432.384 0 0 0-93.2352-138.3168A433.152 433.152 0 0 0 511.8976 76.8c-58.752 0-115.7632 11.4688-169.472 34.2016a432.256 432.256 0 0 0-138.2912 93.2608A433.408 433.408 0 0 0 76.8 512c0 58.7776 11.4688 115.7888 34.176 169.5232a432.384 432.384 0 0 0 93.2352 138.3168A433.8432 433.8432 0 0 0 512 947.3024c58.752 0 115.7632-11.4688 169.472-34.2016a432.256 432.256 0 0 0 138.3168-93.2608A433.9456 433.9456 0 0 0 947.2 512a436.2752 436.2752 0 0 0-34.3808-169.5232z m-454.0416 152.2432l-48.1792 15.616a100.2752 100.2752 0 0 1 18.4576-56.6272l29.7216 41.0112z m-112.64 36.608l-66.048 21.4784a234.8544 234.8544 0 0 1 68.2752-210.0224l40.704 56.064A165.6832 165.6832 0 0 0 344.832 512c0.1024 6.5024 0.4864 13.0048 1.28 19.328z m440.32 104.448l65.3568 21.248c-52.4288 122.3168-168.96 210.9184-307.072 223.0528V811.264a299.52 299.52 0 0 0 180.0448-86.3488 301.824 301.824 0 0 0 61.696-89.1904z m-128.8704-41.8816l65.9456 21.4528c-33.7152 68.7872-100.0448 118.912-178.688 129.8944v-69.4528h-0.1024a166.144 166.144 0 0 0 85.248-45.6704 167.168 167.168 0 0 0 27.5968-36.224z m-112.8448-36.7104l48.1536 15.616a101.8112 101.8112 0 0 1-48.1536 35.072v-50.688zM269.2096 233.6l40.2944 55.4496a300.1856 300.1856 0 0 0-98.4832 222.848c0 20.7872 2.048 41.2928 6.2208 61.312l-65.5616 21.3504A373.5552 373.5552 0 0 1 142.464 512c0-110.9248 49.152-210.6112 126.72-278.4z" fill="#5D7092" /><path d="M479.0784 880.0768c-138.112-12.1344-254.6432-100.736-306.9952-223.1296l65.3568-21.2736a298.24 298.24 0 0 0 61.6704 89.1648 300.1088 300.1088 0 0 0 180.0704 86.3488v68.864h-0.1024zM479.0784 745.1392c-78.6688-10.9824-144.9984-61.1072-178.688-129.8688l65.92-21.4784c7.3984 13.1072 16.6144 25.344 27.5968 36.224a165.376 165.376 0 0 0 85.248 45.6704v69.4528h-0.0768zM479.0784 607.872a102.1184 102.1184 0 0 1-48.1792-35.072l48.1792-15.616v50.688zM511.8976 142.464c69.3504 0 134.2208 19.2512 189.696 52.5568l-40.32 55.552a298.3936 298.3936 0 0 0-149.376-39.5264 300.1344 300.1344 0 0 0-149.376 39.552l-40.2944-55.552a366.208 366.208 0 0 1 189.696-52.5824zM442.1632 360.1664l-40.704-56.064a233.728 233.728 0 0 1 110.4384-27.5712c39.936 0 77.5168 9.984 110.4384 27.5712l-40.704 56.064a166.7072 166.7072 0 0 0-69.7344-15.1552c-24.4736 0-48.1792 5.248-69.7344 15.1552zM511.8976 456.1408l-29.7984-40.9856a100.6848 100.6848 0 0 1 29.7984-4.48c10.3936 0 20.4032 1.536 29.824 4.48l-29.824 40.9856z" fill="#5AD8A6" /><path d="M565.0176 494.72l29.7216-41.0112c11.3664 16.0256 18.0736 35.584 18.4576 56.6272l-48.1792-15.616zM677.6832 531.328c0.768-6.4 1.0752-12.8 1.0752-19.328 0-42.3424-15.616-82.2784-44.1856-113.152l40.704-56.064a234.8544 234.8544 0 0 1 68.2496 210.0224l-65.8432-21.4784zM872.1152 594.56l-65.3568-21.248c4.1728-20.0192 6.2208-40.5248 6.2208-61.312 0-40.704-7.9616-80.128-23.6032-117.248a298.5984 298.5984 0 0 0-74.88-105.6l40.2944-55.4752c77.6192 67.8144 126.7456 167.4752 126.7456 278.4256a385.3824 385.3824 0 0 1-9.4208 82.4576z" fill="#0B69E6" /></svg>