<?xml version="1.0" standalone="no"?><!DOCTYPE svg PUBLIC "-//W3C//DTD SVG 1.1//EN" "http://www.w3.org/Graphics/SVG/1.1/DTD/svg11.dtd"><svg class="icon" width="200px" height="200.00px" viewBox="0 0 1024 1024" version="1.1" xmlns="http://www.w3.org/2000/svg"><path d="M512 76.8L76.8 393.5232l166.8352 512.5632h536.7296L947.2 393.5232 512 76.8z m24.1664 181.3248l207.9488 176.512-207.9488 67.6864v-244.1984z m229.7088 215.1936l-130.56 191.0016-87.04-120.8832 217.6-70.144zM596.6336 686.08l-224.8704 79.7952 142.6432-193.4336 82.2272 113.6384z m-120.9088-137.8048l-140.2112 190.976-65.28-249.0112 205.4912 58.0352z m-190.976-101.5552l205.4912-174.08v232.1152l-205.5168-58.0352z m251.4176-297.3952l333.6704 241.792-77.3632 26.5984-256.3072-220.032V149.3248z m-45.9264 0v65.28l-258.7136 217.6-96.6912-26.5984L490.24 149.3504z m-222.4384 681.8304l-123.3152-374.784 74.9568 21.76 79.7952 309.504-31.4368 43.52z m33.8432 29.0048l21.76-29.0048 299.8016-106.3936 99.1488 135.3984H301.6448z m456.96-29.0048L664.32 702.976l169.2416-251.4432-2.4064-2.432 55.6032-19.328-128.1536 401.3568z" fill="#5D7092" /><path d="M536.1664 258.1248l207.9488 176.512-207.9488 67.6864zM765.8752 473.3184l-130.56 191.0016-87.04-120.8832zM596.6336 686.08l-224.8704 79.7952 142.6432-193.4336zM475.7248 548.2752l-140.2112 190.976-65.28-249.0112 205.4912 58.0352zM284.7232 446.72l205.5168-174.08v232.1152z" fill="#0B69E6" fill-opacity=".5" /></svg>