<?xml version="1.0" standalone="no"?><!DOCTYPE svg PUBLIC "-//W3C//DTD SVG 1.1//EN" "http://www.w3.org/Graphics/SVG/1.1/DTD/svg11.dtd"><svg class="icon" width="200px" height="200.00px" viewBox="0 0 1024 1024" version="1.1" xmlns="http://www.w3.org/2000/svg"><path d="M520.3968 554.3936l-20.8896-7.3984-6.016-5.9904-126.592-126.72L197.4016 244.736A423.7312 423.7312 0 0 0 82.304 535.296C82.688 769.8944 272.384 959.488 506.88 960c179.584 0 333.0048-111.616 395.0848-269.1072l-123.9808-44.288-257.6128-92.2112z" fill="#5D7092" /><path d="M476.8 430.4128l-58.496-58.5216-218.7008-218.5984A423.2448 423.2448 0 0 1 476.8 38.4v392.0128z" fill="#5AD8A6" /><path d="M530.5088 80.7936c228.3008 7.5008 410.7008 194.4064 411.1872 424.3968 0 45.5168-7.1936 89.216-20.4032 130.304l-390.784-139.776V80.768z" fill="#0B69E6" /></svg>