<?xml version="1.0" standalone="no"?><!DOCTYPE svg PUBLIC "-//W3C//DTD SVG 1.1//EN" "http://www.w3.org/Graphics/SVG/1.1/DTD/svg11.dtd"><svg class="icon" width="200px" height="200.00px" viewBox="0 0 1024 1024" version="1.1" xmlns="http://www.w3.org/2000/svg"><path d="M622.208 235.7248l-109.2352 114.5088c-3.1488 3.1744-7.552 3.6864-10.7008 1.024l-119.168-86.9632a7.7056 7.7056 0 0 0-11.0848 1.536L256 405.8368V563.2l115.5584-137.216a7.7056 7.7056 0 0 1 11.0848-1.536l137.0368 99.072c3.1488 2.176 7.168 2.176 9.9328-0.512l111.232-93.8496c0.768-0.512 1.9968-1.536 2.7648-1.536L870.4 352.896V153.6l-244.6592 79.4624c-1.152 0.512-2.3808 1.6384-3.5328 2.6624z m19.328 252.928l-110.0032 94.592c-2.7648 2.7136-6.784 2.7136-9.9328 0.512l-138.5728-99.8656a7.68 7.68 0 0 0-11.0848 1.536S256 623.7952 256 627.0208V742.4h614.4V409.6l-226.4064 77.4912-2.4576 1.5616z" fill="#0B69E6" /><path d="M102.4 102.4h76.8v819.2H102.4z" fill="#5D7092" /><path d="M102.4 844.8h819.2v76.8H102.4z" fill="#5D7092" /></svg>