<?xml version="1.0" standalone="no"?><!DOCTYPE svg PUBLIC "-//W3C//DTD SVG 1.1//EN" "http://www.w3.org/Graphics/SVG/1.1/DTD/svg11.dtd"><svg class="icon" width="200px" height="200.00px" viewBox="0 0 1024 1024" version="1.1" xmlns="http://www.w3.org/2000/svg"><path d="M102.4 102.4h76.8v819.2H102.4z" fill="#5D7092" /><path d="M102.4 844.8h819.2v76.8H102.4z" fill="#5D7092" /><path d="M290.1248 599.4752a74.6752 74.6752 0 1 0 149.3504 0 74.6752 74.6752 0 0 0-149.3504 0zM462.9248 454.4a74.6752 74.6752 0 1 0 149.3504 0 74.6752 74.6752 0 0 0-149.3504 0z" fill="#0B69E6" /><path d="M580.2752 627.2a153.6 153.6 0 1 0 307.2 0 153.6 153.6 0 0 0-307.2 0z" fill="#5AD8A6" /><path d="M797.8752 330.6752a44.8 44.8 0 1 0 89.6 0 44.8 44.8 0 0 0-89.6 0zM514.1248 226.1248a29.8752 29.8752 0 1 0 59.7504 0 29.8752 29.8752 0 0 0-59.7504 0z" fill="#0B69E6" /><path d="M328.5248 349.8752a29.8752 29.8752 0 1 0 59.7504 0 29.8752 29.8752 0 0 0-59.7504 0z" fill="#5AD8A6" /></svg>