<?xml version="1.0" standalone="no"?><!DOCTYPE svg PUBLIC "-//W3C//DTD SVG 1.1//EN" "http://www.w3.org/Graphics/SVG/1.1/DTD/svg11.dtd"><svg class="icon" width="200px" height="200.00px" viewBox="0 0 1024 1024" version="1.1" xmlns="http://www.w3.org/2000/svg"><path d="M102.4 102.4h76.8v819.2H102.4z" fill="#5D7092" /><path d="M102.4 844.8h819.2v76.8H102.4z" fill="#5D7092" /><path d="M576 537.6a38.4 38.4 0 1 0 76.8 0 38.4 38.4 0 0 0-76.8 0z" fill="#0B69E6" /><path d="M576 409.6a38.4 38.4 0 1 0 76.8 0 38.4 38.4 0 0 0-76.8 0z" fill="#5AD8A6" /><path d="M416 345.6a38.4 38.4 0 1 0 76.8 0 38.4 38.4 0 0 0-76.8 0zM512 185.6a38.4 38.4 0 1 0 76.8 0 38.4 38.4 0 0 0-76.8 0zM774.4 294.4a38.4 38.4 0 1 0 76.8 0 38.4 38.4 0 0 0-76.8 0zM377.6 678.4a38.4 38.4 0 1 0 76.8 0 38.4 38.4 0 0 0-76.8 0z" fill="#0B69E6" /><path d="M288 505.6a38.4 38.4 0 1 0 76.8 0 38.4 38.4 0 0 0-76.8 0zM710.4 454.4a38.4 38.4 0 1 0 76.8 0 38.4 38.4 0 0 0-76.8 0zM454.4 512a38.4 38.4 0 1 0 76.8 0 38.4 38.4 0 0 0-76.8 0z" fill="#5AD8A6" /><path d="M716.8 614.4a38.4 38.4 0 1 0 76.8 0 38.4 38.4 0 0 0-76.8 0z" fill="#0B69E6" /><path d="M736 729.6a38.4 38.4 0 1 0 76.8 0 38.4 38.4 0 0 0-76.8 0zM230.4 256a38.4 38.4 0 1 0 76.8 0 38.4 38.4 0 0 0-76.8 0z" fill="#5AD8A6" /></svg>